<svg width="28" height="28" viewBox="0 0 28 28" fill="none" xmlns="http://www.w3.org/2000/svg">
    <path d="M5 3h12l6 6v15a1 1 0 01-1 1H5a1 1 0 01-1-1V4a1 1 0 011-1z" fill="#1E3A5F" opacity="0.5"/>
    <path d="M5 3h12l6 6v15a1 1 0 01-1 1H5a1 1 0 01-1-1V4a1 1 0 011-1z" stroke="#93C5FD" stroke-width="1.5" fill="none"/>
    <path d="M17 3v6h6" stroke="#93C5FD" stroke-width="1.5"/>
    <path d="M9 17l5-5 5 5" stroke="#93C5FD" stroke-width="1.5" stroke-linecap="round" stroke-linejoin="round"/>
    <line x1="9" y1="21" x2="19" y2="21" stroke="#93C5FD" stroke-width="1.5" stroke-linecap="round"/>
</svg>